<svg width="48" height="48" viewBox="0 0 48 48" fill="none" xmlns="http://www.w3.org/2000/svg">
<path d="M38.9998 19.9998C38.9998 19.7346 38.8944 19.4803 38.7069 19.2927C38.5194 19.1052 38.265 18.9998 37.9998 18.9998C37.7346 18.9998 37.4802 19.1052 37.2927 19.2927C37.1052 19.4803 36.9998 19.7346 36.9998 19.9998H38.9998ZM10.9998 19.9998C10.9998 19.7346 10.8944 19.4803 10.7069 19.2927C10.5194 19.1052 10.265 18.9998 9.9998 18.9998C9.73458 18.9998 9.48023 19.1052 9.29269 19.2927C9.10516 19.4803 8.9998 19.7346 8.9998 19.9998H10.9998ZM41.2918 24.7078C41.4796 24.8956 41.7342 25.0011 41.9998 25.0011C42.2654 25.0011 42.52 24.8956 42.7078 24.7078C42.8956 24.5201 43.0011 24.2654 43.0011 23.9998C43.0011 23.7343 42.8956 23.4796 42.7078 23.2918L41.2918 24.7078ZM23.9998 5.99983L24.7078 5.29183C24.6149 5.19871 24.5046 5.12482 24.3831 5.07441C24.2616 5.024 24.1313 4.99805 23.9998 4.99805C23.8683 4.99805 23.738 5.024 23.6165 5.07441C23.495 5.12482 23.3847 5.19871 23.2918 5.29183L23.9998 5.99983ZM5.2918 23.2918C5.10402 23.4796 4.99854 23.7343 4.99854 23.9998C4.99854 24.2654 5.10402 24.5201 5.2918 24.7078C5.47957 24.8956 5.73425 25.0011 5.9998 25.0011C6.26535 25.0011 6.52003 24.8956 6.7078 24.7078L5.2918 23.2918ZM13.9998 42.9998H33.9998V40.9998H13.9998V42.9998ZM38.9998 37.9998V19.9998H36.9998V37.9998H38.9998ZM10.9998 37.9998V19.9998H8.9998V37.9998H10.9998ZM42.7078 23.2918L24.7078 5.29183L23.2918 6.70783L41.2918 24.7078L42.7078 23.2918ZM23.2918 5.29183L5.2918 23.2918L6.7078 24.7078L24.7078 6.70783L23.2918 5.29183ZM33.9998 42.9998C35.3259 42.9998 36.5977 42.4731 37.5353 41.5354C38.473 40.5977 38.9998 39.3259 38.9998 37.9998H36.9998C36.9998 38.7955 36.6837 39.5585 36.1211 40.1212C35.5585 40.6838 34.7954 40.9998 33.9998 40.9998V42.9998ZM13.9998 40.9998C13.2041 40.9998 12.4411 40.6838 11.8785 40.1212C11.3159 39.5585 10.9998 38.7955 10.9998 37.9998H8.9998C8.9998 39.3259 9.52658 40.5977 10.4643 41.5354C11.4019 42.4731 12.6737 42.9998 13.9998 42.9998V40.9998Z" fill="white"/>
</svg>
