<svg width="48" height="48" fill="none" xmlns="http://www.w3.org/2000/svg"><path d="M39 20a1 1 0 0 0-2 0h2Zm-28 0a1 1 0 0 0-2 0h2Zm30.292 4.708a1.001 1.001 0 1 0 1.416-1.416l-1.416 1.416ZM24 6l.708-.708a1 1 0 0 0-1.416 0L24 6ZM5.292 23.292a1.001 1.001 0 0 0 1.416 1.416l-1.416-1.416ZM14 43h20v-2H14v2Zm25-5V20h-2v18h2Zm-28 0V20H9v18h2Zm31.708-14.708-18-18-1.416 1.416 18 18 1.416-1.416Zm-19.416-18-18 18 1.416 1.416 18-18-1.416-1.416ZM34 43a5 5 0 0 0 5-5h-2a3 3 0 0 1-3 3v2Zm-20-2a3 3 0 0 1-3-3H9a5 5 0 0 0 5 5v-2Z" fill="#fff"/></svg>